<svg xmlns="http://www.w3.org/2000/svg" viewBox="0 0 640 360" role="img" aria-label="RIS-FUSION visual abstract">
  <rect width="640" height="360" fill="#f8fafc"/>
  <rect x="32" y="42" width="178" height="128" rx="12" fill="#172554"/>
  <rect x="52" y="68" width="54" height="72" rx="10" fill="#ef4444"/>
  <circle cx="140" cy="96" r="34" fill="#f97316"/>
  <rect x="32" y="200" width="178" height="118" rx="12" fill="#e0f2fe"/>
  <path d="M50 292l55-70 38 42 30-24 22 52z" fill="#0ea5e9"/>
  <rect x="252" y="78" width="136" height="64" rx="12" fill="#fff7ed" stroke="#fed7aa"/>
  <text x="278" y="116" font-family="Arial, sans-serif" font-size="22" font-weight="700" fill="#9a3412">text</text>
  <path d="M222 106h42M222 260h42M388 110h54M388 260h54" stroke="#64748b" stroke-width="6" stroke-linecap="round"/>
  <rect x="450" y="72" width="158" height="210" rx="14" fill="#ffffff" stroke="#cbd5e1"/>
  <rect x="478" y="104" width="102" height="76" rx="10" fill="#dbeafe"/>
  <path d="M500 162c34-44 54-46 72-12v46H500z" fill="#2563eb"/>
  <path d="M482 216h96" stroke="#ef4444" stroke-width="10" stroke-linecap="round"/>
  <path d="M482 240h70" stroke="#22c55e" stroke-width="10" stroke-linecap="round"/>
  <text x="36" y="338" font-family="Arial, sans-serif" font-size="30" font-weight="700" fill="#0f172a">RIS-FUSION</text>
  <text x="408" y="338" font-family="Arial, sans-serif" font-size="20" fill="#475569">language guided fusion</text>
</svg>
