<svg xmlns="http://www.w3.org/2000/svg" viewBox="0 0 640 360" role="img" aria-label="ZoomSearch visual abstract">
  <rect width="640" height="360" fill="#f8fafc"/>
  <rect x="42" y="44" width="300" height="220" rx="14" fill="#e0f2fe" stroke="#7dd3fc"/>
  <g opacity="0.9">
    <rect x="64" y="66" width="70" height="48" rx="6" fill="#38bdf8"/>
    <rect x="146" y="66" width="70" height="48" rx="6" fill="#22c55e"/>
    <rect x="228" y="66" width="70" height="48" rx="6" fill="#60a5fa"/>
    <rect x="64" y="128" width="70" height="48" rx="6" fill="#f59e0b"/>
    <rect x="146" y="128" width="70" height="48" rx="6" fill="#a78bfa"/>
    <rect x="228" y="128" width="70" height="48" rx="6" fill="#34d399"/>
    <rect x="64" y="190" width="70" height="48" rx="6" fill="#93c5fd"/>
    <rect x="146" y="190" width="70" height="48" rx="6" fill="#f87171"/>
    <rect x="228" y="190" width="70" height="48" rx="6" fill="#0ea5e9"/>
  </g>
  <circle cx="418" cy="156" r="64" fill="none" stroke="#111827" stroke-width="16"/>
  <path d="M464 202l78 78" stroke="#111827" stroke-width="18" stroke-linecap="round"/>
  <rect x="382" y="120" width="72" height="72" rx="10" fill="#ffffff" stroke="#2563eb" stroke-width="6"/>
  <path d="M396 174l22-32 18 22 10-14 12 24z" fill="#2563eb"/>
  <text x="36" y="338" font-family="Arial, sans-serif" font-size="30" font-weight="700" fill="#0f172a">ZoomSearch</text>
  <text x="382" y="338" font-family="Arial, sans-serif" font-size="20" fill="#475569">adaptive zoom for VQA</text>
</svg>
